<svg width="20" height="20" viewBox="0 0 20 20" fill="none" xmlns="http://www.w3.org/2000/svg">
<path d="M18.3332 8.33331V7.68081C18.3332 6.06414 18.3332 5.25664 17.8448 4.75414C17.3565 4.25247 16.5715 4.25247 14.9998 4.25247H13.2673C12.5032 4.25247 12.4965 4.25081 11.809 3.90664L9.03317 2.51747C7.874 1.93747 7.294 1.64747 6.6765 1.66747C6.059 1.68747 5.49984 2.01497 4.37734 2.66997L3.35484 3.26664C2.53067 3.74747 2.119 3.98831 1.89317 4.38831C1.6665 4.78831 1.6665 5.27497 1.6665 6.24914V13.0966C1.6665 14.3758 1.6665 15.0158 1.9515 15.3716C2.1415 15.6091 2.40734 15.7683 2.7015 15.8216C3.14317 15.9008 3.68484 15.585 4.7665 14.9533C5.5015 14.5241 6.20817 14.0783 7.08734 14.1991C7.824 14.3008 8.50817 14.7658 9.1665 15.095M6.6665 1.66664V14.1666M12.4998 4.16664V7.91664" stroke="black" stroke-width="1.25" stroke-linecap="round" stroke-linejoin="round"/>
<path d="M14.5834 13.75H14.5909M15.2567 18.07C15.0739 18.2401 14.8331 18.3342 14.5834 18.3333C14.3317 18.3333 14.0909 18.2392 13.9101 18.0692C12.2551 16.5108 10.0384 14.7692 11.1192 12.2417C11.7042 10.875 13.1084 10 14.5834 10C16.0584 10 17.4634 10.875 18.0476 12.2417C19.1276 14.7667 16.9159 16.5175 15.2567 18.07Z" stroke="black" stroke-width="1.25" stroke-linecap="round" stroke-linejoin="round"/>
</svg>
