<svg width="14" height="20" viewBox="0 0 14 20" fill="none" xmlns="http://www.w3.org/2000/svg">
<path d="M3.85107 14.8156C4.42946 15.5527 4.95591 16.3292 5.42661 17.1394C5.82846 17.9013 5.99598 18.418 6.28966 19.3361C6.46977 19.8434 6.63255 19.9948 6.98252 19.9948C7.36388 19.9948 7.53691 19.7372 7.67058 19.3389C7.94819 18.4719 8.16601 17.8102 8.50966 17.1849C9.18399 15.9779 10.0219 14.9052 10.8452 13.8743C11.0681 13.5825 12.5092 11.8828 13.158 10.5416C13.158 10.5416 13.9554 9.06827 13.9554 7.01066C13.9554 5.08598 13.169 3.7511 13.169 3.7511L10.905 4.35742L9.53004 7.97873L9.18988 8.47807L9.12186 8.56854L9.0314 8.68178L8.8726 8.86265L8.64568 9.08952L7.42132 10.087L4.36028 11.8544L3.85107 14.8156Z" fill="#34A853"/>
<path d="M0.691895 10.2938C1.43898 12.0002 2.87963 13.5003 3.85435 14.8167L9.03151 8.68404C9.03151 8.68404 8.30214 9.63794 6.97909 9.63794C5.50536 9.63794 4.31478 8.4611 4.31478 6.97717C4.31478 5.95957 4.92699 5.2605 4.92699 5.2605L1.4126 6.20219L0.691895 10.2938Z" fill="#FBBC04"/>
<path d="M9.08909 0.315308C10.8085 0.869695 12.2803 2.03356 13.1705 3.7498L9.03285 8.68048C9.03285 8.68048 9.64506 7.96877 9.64506 6.95749C9.64506 5.43901 8.36642 4.30463 6.98511 4.30463C5.6789 4.30463 4.92871 5.25694 4.92871 5.25694V2.15068L9.08909 0.315308Z" fill="#4285F4"/>
<path d="M1.64014 2.49401C2.66711 1.26529 4.4742 0 6.96553 0C8.17425 0 9.08488 0.31733 9.08488 0.31733L4.92488 5.25973H1.97747L1.64014 2.49401Z" fill="#1A73E8"/>
<path d="M0.691697 10.2939C0.691697 10.2939 0.00439453 8.94791 0.00439453 6.99805C0.00439453 5.15516 0.720798 3.54426 1.64009 2.49402L4.92717 5.26018L0.691697 10.2939Z" fill="#EA4335"/>
</svg>
