<svg width="20" height="20" viewBox="0 0 20 20" fill="none" xmlns="http://www.w3.org/2000/svg">
<path d="M13.2843 14.9692C13.4759 13.4033 12.4676 12.405 9.8051 11.555C8.5151 11.115 7.9076 10.5383 7.92176 9.74583C7.97593 8.86583 8.7951 8.225 9.88176 8.20417C10.7375 8.2134 11.5722 8.47106 12.2843 8.94583C12.3809 9.00583 12.4484 8.99583 12.5034 8.9125C12.5784 8.7925 12.7659 8.50167 12.8284 8.39583C12.8709 8.32917 12.8793 8.24083 12.7718 8.1625C12.6176 8.04833 12.1851 7.81667 11.9526 7.71917C11.2904 7.43892 10.5791 7.29331 9.8601 7.29083C8.26843 7.2975 7.01593 8.30333 6.9101 9.64583C6.84232 10.6158 7.32288 11.4011 8.35176 12.0017C8.57093 12.1283 9.75176 12.5983 10.2218 12.745C11.7001 13.205 12.4676 14.03 12.2868 14.9925C12.1226 15.865 11.2043 16.4292 9.93843 16.4458C8.93593 16.4075 8.0326 15.9983 7.3326 15.4542L7.2151 15.3625C7.12843 15.2958 7.03343 15.3 6.97593 15.3875C6.93426 15.4517 6.6626 15.8433 6.59426 15.9458C6.5301 16.0358 6.5651 16.0858 6.63176 16.1408C6.92343 16.385 7.3126 16.6517 7.57676 16.7867C8.30848 17.1595 9.11344 17.3664 9.93426 17.3925C10.5252 17.4206 11.1152 17.3199 11.6634 17.0975C12.5759 16.71 13.1659 15.9358 13.2843 14.9692ZM10.0001 1.1675C8.27676 1.1675 6.87176 2.7925 6.80593 4.82583H13.1934C13.1259 2.79167 11.7218 1.16667 10.0001 1.16667M16.5426 19.9983L16.4759 19.9992L3.3226 19.9975C2.4276 19.9642 1.7701 19.2392 1.6801 18.3383L1.67176 18.1758L1.0826 5.2375C1.07873 5.18552 1.08551 5.1333 1.10252 5.08404C1.11952 5.03477 1.14639 4.98948 1.18149 4.95095C1.21659 4.91242 1.25918 4.88146 1.30665 4.85994C1.35412 4.83843 1.40549 4.82682 1.4576 4.82583H5.60343C5.70426 2.14 7.63343 0 10.0001 0C12.3668 0 14.2943 2.14083 14.3959 4.825H18.5359C18.5878 4.82516 18.6391 4.83584 18.6867 4.85639C18.7343 4.87694 18.7772 4.90694 18.8129 4.94457C18.8486 4.9822 18.8763 5.02667 18.8943 5.0753C18.9122 5.12393 18.9202 5.17571 18.9176 5.2275L18.2734 18.2175L18.2676 18.3267C18.1893 19.2383 17.4518 19.9742 16.5426 19.9983Z" fill="#F24E1E"/>
</svg>
